<svg preserveAspectRatio="none" overflow="visible" style="display: block;" width="93.8721" height="23.0957" viewBox="0 0 93.8721 23.0957" fill="none" xmlns="http://www.w3.org/2000/svg">
<g id="aquarius">
<path d="M8.53271 18.0176C8.40251 17.7572 8.29671 17.2933 8.21533 16.626C7.16553 17.7165 5.91227 18.2617 4.45557 18.2617C3.15348 18.2617 2.08333 17.8955 1.24512 17.1631C0.415039 16.4225 0 15.4867 0 14.3555C0 12.9801 0.520833 11.9141 1.5625 11.1572C2.6123 10.3923 4.08529 10.0098 5.98145 10.0098H8.17871V8.97217C8.17871 8.18278 7.94271 7.55615 7.4707 7.09229C6.9987 6.62028 6.3029 6.38428 5.3833 6.38428C4.57764 6.38428 3.90218 6.58773 3.35693 6.99463C2.81169 7.40153 2.53906 7.89388 2.53906 8.47168H0.268555C0.268555 7.8125 0.500488 7.17773 0.964355 6.56738C1.43636 5.94889 2.07113 5.46061 2.86865 5.10254C3.67432 4.74447 4.55729 4.56543 5.51758 4.56543C7.03939 4.56543 8.23161 4.94792 9.09424 5.71289C9.95687 6.46973 10.4045 7.51546 10.437 8.8501V14.9292C10.437 16.1418 10.5916 17.1061 10.9009 17.8223V18.0176H8.53271ZM4.78516 16.2964C5.49316 16.2964 6.16455 16.1133 6.79932 15.7471C7.43408 15.3809 7.89388 14.9048 8.17871 14.3188V11.6089H6.40869C3.64176 11.6089 2.2583 12.4186 2.2583 14.0381C2.2583 14.7461 2.4943 15.2995 2.96631 15.6982C3.43831 16.097 4.0446 16.2964 4.78516 16.2964Z" fill="#010739"/>
<path d="M13.4277 11.3037C13.4277 9.22852 13.9038 7.5887 14.856 6.38428C15.8081 5.17171 17.0858 4.56543 18.689 4.56543C20.2515 4.56543 21.4844 5.09033 22.3877 6.14014L22.4854 4.80957H24.5605V23.0957H22.3022V16.7969C21.3908 17.7734 20.1782 18.2617 18.6646 18.2617C17.0695 18.2617 15.7959 17.6432 14.8438 16.4062C13.8997 15.1611 13.4277 13.5132 13.4277 11.4624V11.3037ZM15.686 11.5601C15.686 13.0737 16.0034 14.2619 16.6382 15.1245C17.2811 15.9871 18.1437 16.4185 19.2261 16.4185C20.5688 16.4185 21.5942 15.8244 22.3022 14.6362V8.1665C21.5861 7.00277 20.5688 6.4209 19.2505 6.4209C18.16 6.4209 17.2933 6.85628 16.6504 7.72705C16.0075 8.58968 15.686 9.86735 15.686 11.5601Z" fill="#010739"/>
<path d="M36.3403 16.7114C35.4614 17.745 34.1715 18.2617 32.4707 18.2617C31.0628 18.2617 29.9886 17.8548 29.248 17.041C28.5156 16.2191 28.1453 15.0065 28.1372 13.4033V4.80957H30.3955V13.3423C30.3955 15.3442 31.2093 16.3452 32.8369 16.3452C34.5622 16.3452 35.7096 15.7023 36.2793 14.4165V4.80957H38.5376V18.0176H36.3892L36.3403 16.7114Z" fill="#010739"/>
<path d="M50.1343 18.0176C50.0041 17.7572 49.8983 17.2933 49.8169 16.626C48.7671 17.7165 47.5138 18.2617 46.0571 18.2617C44.755 18.2617 43.6849 17.8955 42.8467 17.1631C42.0166 16.4225 41.6016 15.4867 41.6016 14.3555C41.6016 12.9801 42.1224 11.9141 43.1641 11.1572C44.2139 10.3923 45.6868 10.0098 47.583 10.0098H49.7803V8.97217C49.7803 8.18278 49.5443 7.55615 49.0723 7.09229C48.6003 6.62028 47.9045 6.38428 46.9849 6.38428C46.1792 6.38428 45.5037 6.58773 44.9585 6.99463C44.4132 7.40153 44.1406 7.89388 44.1406 8.47168H41.8701C41.8701 7.8125 42.1021 7.17773 42.5659 6.56738C43.0379 5.94889 43.6727 5.46061 44.4702 5.10254C45.2759 4.74447 46.1589 4.56543 47.1191 4.56543C48.641 4.56543 49.8332 4.94792 50.6958 5.71289C51.5584 6.46973 52.006 7.51546 52.0386 8.8501V14.9292C52.0386 16.1418 52.1932 17.1061 52.5024 17.8223V18.0176H50.1343ZM46.3867 16.2964C47.0947 16.2964 47.7661 16.1133 48.4009 15.7471C49.0356 15.3809 49.4954 14.9048 49.7803 14.3188V11.6089H48.0103C45.2433 11.6089 43.8599 12.4186 43.8599 14.0381C43.8599 14.7461 44.0959 15.2995 44.5679 15.6982C45.0399 16.097 45.6462 16.2964 46.3867 16.2964Z" fill="#010739"/>
<path d="M61.9629 6.83594C61.6211 6.77897 61.2508 6.75049 60.8521 6.75049C59.3709 6.75049 58.3659 7.38118 57.8369 8.64258V18.0176H55.5786V4.80957H57.7759L57.8125 6.33545C58.5531 5.15544 59.6029 4.56543 60.9619 4.56543C61.4014 4.56543 61.735 4.6224 61.9629 4.73633V6.83594Z" fill="#010739"/>
<path d="M66.5039 18.0176H64.2456V4.80957H66.5039V18.0176ZM64.0625 1.30615C64.0625 0.939941 64.1724 0.630697 64.3921 0.378418C64.62 0.126139 64.9536 0 65.3931 0C65.8325 0 66.1662 0.126139 66.394 0.378418C66.6219 0.630697 66.7358 0.939941 66.7358 1.30615C66.7358 1.67236 66.6219 1.97754 66.394 2.22168C66.1662 2.46582 65.8325 2.58789 65.3931 2.58789C64.9536 2.58789 64.62 2.46582 64.3921 2.22168C64.1724 1.97754 64.0625 1.67236 64.0625 1.30615Z" fill="#010739"/>
<path d="M78.2837 16.7114C77.4048 17.745 76.1149 18.2617 74.4141 18.2617C73.0062 18.2617 71.932 17.8548 71.1914 17.041C70.459 16.2191 70.0887 15.0065 70.0806 13.4033V4.80957H72.3389V13.3423C72.3389 15.3442 73.1527 16.3452 74.7803 16.3452C76.5055 16.3452 77.653 15.7023 78.2227 14.4165V4.80957H80.481V18.0176H78.3325L78.2837 16.7114Z" fill="#010739"/>
<path d="M91.6138 14.5142C91.6138 13.9038 91.3818 13.4318 90.918 13.0981C90.4622 12.7563 89.6606 12.4634 88.5132 12.2192C87.3739 11.9751 86.4665 11.6821 85.791 11.3403C85.1237 10.9985 84.6273 10.5916 84.3018 10.1196C83.9844 9.64762 83.8257 9.0861 83.8257 8.43506C83.8257 7.3527 84.2814 6.43717 85.1929 5.68848C86.1125 4.93978 87.2843 4.56543 88.7085 4.56543C90.2059 4.56543 91.4185 4.95199 92.3462 5.7251C93.2821 6.49821 93.75 7.48698 93.75 8.69141H91.4795C91.4795 8.07292 91.215 7.53988 90.686 7.09229C90.1652 6.64469 89.506 6.4209 88.7085 6.4209C87.8866 6.4209 87.2437 6.59993 86.7798 6.95801C86.3159 7.31608 86.084 7.78402 86.084 8.36182C86.084 8.90706 86.2996 9.31803 86.731 9.59473C87.1623 9.87142 87.9395 10.1359 89.0625 10.3882C90.1937 10.6405 91.1092 10.9416 91.8091 11.2915C92.509 11.6414 93.0257 12.0646 93.3594 12.561C93.7012 13.0493 93.8721 13.6475 93.8721 14.3555C93.8721 15.5355 93.4001 16.4836 92.4561 17.1997C91.512 17.9077 90.2873 18.2617 88.7817 18.2617C87.7238 18.2617 86.7879 18.0745 85.9741 17.7002C85.1603 17.3258 84.5215 16.805 84.0576 16.1377C83.6019 15.4622 83.374 14.7339 83.374 13.9526H85.6323C85.673 14.7095 85.9741 15.3117 86.5356 15.7593C87.1053 16.1987 87.854 16.4185 88.7817 16.4185C89.6362 16.4185 90.3198 16.2476 90.8325 15.9058C91.3534 15.5558 91.6138 15.092 91.6138 14.5142Z" fill="#010739"/>
</g>
</svg>
